<svg xmlns="http://www.w3.org/2000/svg" xmlns:xlink="http://www.w3.org/1999/xlink" width="1400" zoomAndPan="magnify" viewBox="0 0 1050 262.499992" height="350" preserveAspectRatio="xMidYMid meet" version="1.0"><defs><g/></defs><path fill="#ffffff" d="M 1 0 L 1049 0 L 1049 262 L 1 262 Z M 1 0 " fill-opacity="1" fill-rule="nonzero"/><path fill="#dcdbda" d="M 1 0 L 1049 0 L 1049 262 L 1 262 Z M 1 0 " fill-opacity="1" fill-rule="nonzero"/><g fill="#65553e" fill-opacity="1"><g transform="translate(255.827706, 158.32342)"><g><path d="M 26.59375 -1.671875 C 22.84375 -0.0351562 19.382812 0.78125 16.21875 0.78125 C 10.34375 0.78125 7.40625 -2.296875 7.40625 -8.453125 L 7.40625 -34.578125 L 0.46875 -34.578125 L 0.46875 -38.25 L 7.609375 -38.25 L 7.609375 -50.21875 L 14.703125 -50.21875 L 14.703125 -38.25 L 25.6875 -38.25 L 25.6875 -34.578125 L 14.78125 -34.578125 L 14.78125 -13.09375 C 14.78125 -9.539062 15.179688 -7.117188 15.984375 -5.828125 C 16.785156 -4.546875 18.460938 -3.90625 21.015625 -3.90625 C 23.222656 -3.90625 25.082031 -4.125 26.59375 -4.5625 Z M 26.59375 -1.671875 "/></g></g></g><g fill="#65553e" fill-opacity="1"><g transform="translate(286.02468, 158.32342)"><g><path d="M 25.6875 0 L 25.6875 -2.578125 C 26.414062 -2.648438 27.09375 -2.710938 27.71875 -2.765625 C 30.320312 -2.921875 31.625 -4.179688 31.625 -6.546875 L 31.625 -26.359375 C 31.625 -28.929688 31.003906 -30.992188 29.765625 -32.546875 C 28.535156 -34.109375 26.941406 -34.890625 24.984375 -34.890625 C 20.546875 -34.890625 17.222656 -32.941406 15.015625 -29.046875 L 15.015625 -6.9375 C 15.015625 -4.3125 16.988281 -2.859375 20.9375 -2.578125 L 20.9375 0 L 2.0625 0 L 2.0625 -2.578125 L 3.984375 -2.765625 C 6.503906 -2.953125 7.765625 -4.210938 7.765625 -6.546875 L 7.765625 -51.34375 C 7.765625 -52.351562 7.507812 -53.347656 7 -54.328125 C 6.488281 -55.304688 5.84375 -55.9375 5.0625 -56.21875 C 4.289062 -56.5 2.679688 -56.734375 0.234375 -56.921875 L 0.234375 -59.5 L 14.46875 -60.34375 L 15.015625 -59.8125 L 15.015625 -32.984375 L 15.171875 -32.984375 C 18.003906 -35.835938 20.351562 -37.640625 22.21875 -38.390625 C 24.09375 -39.148438 26.109375 -39.53125 28.265625 -39.53125 C 35.390625 -39.53125 38.953125 -35.296875 38.953125 -26.828125 L 38.953125 -6.859375 C 38.953125 -4.285156 40.820312 -2.859375 44.5625 -2.578125 L 44.5625 0 Z M 25.6875 0 "/></g></g></g><g fill="#65553e" fill-opacity="1"><g transform="translate(335.1291, 158.32342)"><g><path d="M 36.953125 -9 C 33.367188 -2.300781 28.109375 1.046875 21.171875 1.046875 C 15.398438 1.046875 10.894531 -0.84375 7.65625 -4.625 C 4.425781 -8.40625 2.8125 -13.390625 2.8125 -19.578125 C 2.8125 -25.035156 4.453125 -29.722656 7.734375 -33.640625 C 11.023438 -37.566406 15.226562 -39.53125 20.34375 -39.53125 C 25.414062 -39.53125 29.296875 -38.054688 31.984375 -35.109375 C 34.671875 -32.160156 36.015625 -28.125 36.015625 -23 L 36.015625 -20.421875 L 10.53125 -20.421875 C 10.53125 -14.960938 11.640625 -10.738281 13.859375 -7.75 C 16.078125 -4.769531 19.253906 -3.28125 23.390625 -3.28125 C 25.679688 -3.28125 27.640625 -3.785156 29.265625 -4.796875 C 30.890625 -5.804688 32.554688 -7.769531 34.265625 -10.6875 Z M 28.34375 -23.703125 C 28.34375 -32.273438 25.648438 -36.5625 20.265625 -36.5625 C 17.566406 -36.5625 15.304688 -35.414062 13.484375 -33.125 C 11.671875 -30.84375 10.6875 -27.703125 10.53125 -23.703125 Z M 28.34375 -23.703125 "/></g></g></g><g fill="#65553e" fill-opacity="1"><g transform="translate(376.319682, 158.32342)"><g><path d="M 3.359375 -18.125 L 3.359375 -24.28125 L 26.59375 -24.28125 L 26.59375 -18.125 Z M 3.359375 -18.125 "/></g></g></g><g fill="#65553e" fill-opacity="1"><g transform="translate(408.816738, 158.32342)"><g><path d="M 31.546875 0.15625 L 30.921875 -0.390625 L 30.921875 -3.984375 L 30.5625 -4.046875 C 27.289062 -0.597656 23.601562 1.125 19.5 1.125 C 14.84375 1.125 10.894531 -0.800781 7.65625 -4.65625 C 4.425781 -8.519531 2.8125 -13.414062 2.8125 -19.34375 C 2.8125 -25.0625 4.601562 -29.851562 8.1875 -33.71875 C 11.769531 -37.59375 16.070312 -39.53125 21.09375 -39.53125 C 24.78125 -39.53125 28.03125 -38.695312 30.84375 -37.03125 L 30.84375 -50.453125 C 30.84375 -52.085938 30.390625 -53.523438 29.484375 -54.765625 C 28.585938 -56.015625 26.023438 -56.757812 21.796875 -57 L 21.796875 -59.5 L 37.546875 -60.34375 L 38.171875 -59.8125 L 38.171875 -7.921875 C 38.171875 -6.742188 38.472656 -5.769531 39.078125 -5 C 39.691406 -4.238281 40.269531 -3.800781 40.8125 -3.6875 C 41.363281 -3.570312 42.742188 -3.4375 44.953125 -3.28125 L 44.953125 -0.703125 Z M 30.84375 -29.9375 C 30.84375 -30.695312 30.0625 -31.988281 28.5 -33.8125 C 26.9375 -35.644531 24.726562 -36.5625 21.875 -36.5625 C 18.675781 -36.5625 16.054688 -34.96875 14.015625 -31.78125 C 11.972656 -28.601562 10.953125 -24.285156 10.953125 -18.828125 C 10.953125 -14.179688 11.960938 -10.398438 13.984375 -7.484375 C 16.015625 -4.578125 18.75 -3.125 22.1875 -3.125 C 25.457031 -3.125 28.34375 -4.550781 30.84375 -7.40625 Z M 30.84375 -29.9375 "/></g></g></g><g fill="#65553e" fill-opacity="1"><g transform="translate(457.297396, 158.32342)"><g><path d="M 36.953125 -9 C 33.367188 -2.300781 28.109375 1.046875 21.171875 1.046875 C 15.398438 1.046875 10.894531 -0.84375 7.65625 -4.625 C 4.425781 -8.40625 2.8125 -13.390625 2.8125 -19.578125 C 2.8125 -25.035156 4.453125 -29.722656 7.734375 -33.640625 C 11.023438 -37.566406 15.226562 -39.53125 20.34375 -39.53125 C 25.414062 -39.53125 29.296875 -38.054688 31.984375 -35.109375 C 34.671875 -32.160156 36.015625 -28.125 36.015625 -23 L 36.015625 -20.421875 L 10.53125 -20.421875 C 10.53125 -14.960938 11.640625 -10.738281 13.859375 -7.75 C 16.078125 -4.769531 19.253906 -3.28125 23.390625 -3.28125 C 25.679688 -3.28125 27.640625 -3.785156 29.265625 -4.796875 C 30.890625 -5.804688 32.554688 -7.769531 34.265625 -10.6875 Z M 28.34375 -23.703125 C 28.34375 -32.273438 25.648438 -36.5625 20.265625 -36.5625 C 17.566406 -36.5625 15.304688 -35.414062 13.484375 -33.125 C 11.671875 -30.84375 10.6875 -27.703125 10.53125 -23.703125 Z M 28.34375 -23.703125 "/></g></g></g><g fill="#65553e" fill-opacity="1"><g transform="translate(498.487978, 158.32342)"><g><path d="M 24.203125 -34.96875 C 20.773438 -34.789062 17.945312 -32.90625 15.71875 -29.3125 L 15.71875 -6.9375 C 15.71875 -5.53125 16.164062 -4.503906 17.0625 -3.859375 C 17.957031 -3.210938 19.960938 -2.785156 23.078125 -2.578125 L 23.078125 0 L 2.8125 0 L 2.8125 -2.578125 L 4.671875 -2.765625 C 7.191406 -2.953125 8.453125 -4.210938 8.453125 -6.546875 L 8.453125 -30.25 C 8.453125 -33.632812 6.425781 -35.390625 2.375 -35.515625 L 2.375 -38.09375 L 15.171875 -38.875 L 15.71875 -38.328125 L 15.71875 -32.984375 L 15.90625 -32.984375 C 19.257812 -37.242188 22.847656 -39.375 26.671875 -39.375 C 28.304688 -39.375 29.640625 -38.847656 30.671875 -37.796875 C 31.710938 -36.742188 32.234375 -35.296875 32.234375 -33.453125 C 32.234375 -31.972656 31.875 -30.765625 31.15625 -29.828125 C 30.445312 -28.890625 29.484375 -28.421875 28.265625 -28.421875 C 26.910156 -28.421875 25.820312 -28.765625 25 -29.453125 C 24.1875 -30.140625 23.78125 -30.988281 23.78125 -32 C 23.78125 -32.78125 23.921875 -33.769531 24.203125 -34.96875 Z M 24.203125 -34.96875 "/></g></g></g><g fill="#65553e" fill-opacity="1"><g transform="translate(533.869892, 158.32342)"><g><path d="M 11.5 -48.53125 C 10.195312 -48.53125 9.054688 -49.046875 8.078125 -50.078125 C 7.109375 -51.109375 6.625 -52.320312 6.625 -53.71875 C 6.625 -55.15625 7.101562 -56.410156 8.0625 -57.484375 C 9.03125 -58.566406 10.175781 -59.109375 11.5 -59.109375 C 12.957031 -59.109375 14.171875 -58.597656 15.140625 -57.578125 C 16.117188 -56.566406 16.609375 -55.382812 16.609375 -54.03125 C 16.609375 -52.550781 16.113281 -51.265625 15.125 -50.171875 C 14.132812 -49.078125 12.925781 -48.53125 11.5 -48.53125 Z M 2.890625 0 L 2.890625 -2.578125 L 4.75 -2.765625 C 7.269531 -2.953125 8.53125 -4.210938 8.53125 -6.546875 L 8.53125 -30.25 C 8.53125 -33.425781 6.242188 -35.179688 1.671875 -35.515625 L 1.671875 -38.09375 L 15.25 -38.875 L 15.828125 -38.328125 L 15.828125 -7.015625 C 15.828125 -5.535156 16.285156 -4.484375 17.203125 -3.859375 C 18.128906 -3.234375 19.554688 -2.804688 21.484375 -2.578125 L 21.484375 0 Z M 2.890625 0 "/></g></g></g><g fill="#65553e" fill-opacity="1"><g transform="translate(559.895543, 158.32342)"><g><path d="M 40.8125 -36.09375 C 39.3125 -35.757812 38.113281 -35.25 37.21875 -34.5625 C 36.320312 -33.875 35.65625 -33.148438 35.21875 -32.390625 C 34.789062 -31.640625 33.265625 -28.195312 30.640625 -22.0625 L 24.953125 -8.765625 C 23.785156 -6.085938 22.679688 -3.0625 21.640625 0.3125 L 18.515625 0.3125 C 10.484375 -19.675781 5.941406 -30.585938 4.890625 -32.421875 C 3.835938 -34.253906 1.972656 -35.40625 -0.703125 -35.875 L -0.703125 -38.40625 L 17 -38.40625 L 17 -35.671875 C 13.90625 -35.492188 12.359375 -34.9375 12.359375 -34 L 22.1875 -9.671875 L 28.8125 -25.53125 C 30.582031 -29.769531 31.46875 -32.253906 31.46875 -32.984375 C 31.46875 -34.359375 29.6875 -35.34375 26.125 -35.9375 L 26.125 -38.40625 L 40.8125 -38.40625 Z M 40.8125 -36.09375 "/></g></g></g><g fill="#65553e" fill-opacity="1"><g transform="translate(602.216662, 158.32342)"><g><path d="M 39.21875 -0.703125 C 36.519531 0.285156 34.414062 0.78125 32.90625 0.78125 C 28.820312 0.78125 26.414062 -1.078125 25.6875 -4.796875 L 25.453125 -4.796875 C 21.992188 -0.953125 17.847656 0.96875 13.015625 0.96875 C 10.128906 0.96875 7.757812 0.09375 5.90625 -1.65625 C 4.050781 -3.40625 3.125 -5.722656 3.125 -8.609375 C 3.125 -11.835938 4.003906 -14.300781 5.765625 -16 C 7.535156 -17.707031 10.578125 -19.273438 14.890625 -20.703125 C 21.046875 -22.734375 24.59375 -24.03125 25.53125 -24.59375 L 25.53125 -28.421875 C 25.53125 -30.660156 24.910156 -32.585938 23.671875 -34.203125 C 22.441406 -35.828125 20.617188 -36.640625 18.203125 -36.640625 C 15.710938 -36.640625 13.878906 -36.03125 12.703125 -34.8125 C 12.703125 -34.164062 12.820312 -33.398438 13.0625 -32.515625 C 13.289062 -31.628906 13.40625 -30.691406 13.40625 -29.703125 C 13.40625 -28.691406 12.957031 -27.84375 12.0625 -27.15625 C 11.164062 -26.46875 10.066406 -26.125 8.765625 -26.125 C 6.273438 -26.125 5.03125 -27.601562 5.03125 -30.5625 C 5.03125 -32.875 6.484375 -34.945312 9.390625 -36.78125 C 12.304688 -38.613281 15.398438 -39.53125 18.671875 -39.53125 C 24.003906 -39.53125 27.707031 -38.484375 29.78125 -36.390625 C 31.863281 -34.296875 32.90625 -31.109375 32.90625 -26.828125 L 32.671875 -7.609375 C 32.671875 -6.203125 33 -5.160156 33.65625 -4.484375 C 34.320312 -3.804688 34.921875 -3.421875 35.453125 -3.328125 C 35.984375 -3.242188 37.238281 -3.203125 39.21875 -3.203125 Z M 25.609375 -21.328125 C 19.941406 -19.660156 16.082031 -17.941406 14.03125 -16.171875 C 11.976562 -14.410156 10.953125 -12.21875 10.953125 -9.59375 C 10.953125 -5.4375 12.941406 -3.359375 16.921875 -3.359375 C 19.984375 -3.359375 22.800781 -4.851562 25.375 -7.84375 Z M 25.609375 -21.328125 "/></g></g></g><g fill="#65553e" fill-opacity="1"><g transform="translate(645.083586, 158.32342)"><g><path d="M 26.59375 -1.671875 C 22.84375 -0.0351562 19.382812 0.78125 16.21875 0.78125 C 10.34375 0.78125 7.40625 -2.296875 7.40625 -8.453125 L 7.40625 -34.578125 L 0.46875 -34.578125 L 0.46875 -38.25 L 7.609375 -38.25 L 7.609375 -50.21875 L 14.703125 -50.21875 L 14.703125 -38.25 L 25.6875 -38.25 L 25.6875 -34.578125 L 14.78125 -34.578125 L 14.78125 -13.09375 C 14.78125 -9.539062 15.179688 -7.117188 15.984375 -5.828125 C 16.785156 -4.546875 18.460938 -3.90625 21.015625 -3.90625 C 23.222656 -3.90625 25.082031 -4.125 26.59375 -4.5625 Z M 26.59375 -1.671875 "/></g></g></g><g fill="#65553e" fill-opacity="1"><g transform="translate(675.280537, 158.32342)"><g><path d="M 11.5 -48.53125 C 10.195312 -48.53125 9.054688 -49.046875 8.078125 -50.078125 C 7.109375 -51.109375 6.625 -52.320312 6.625 -53.71875 C 6.625 -55.15625 7.101562 -56.410156 8.0625 -57.484375 C 9.03125 -58.566406 10.175781 -59.109375 11.5 -59.109375 C 12.957031 -59.109375 14.171875 -58.597656 15.140625 -57.578125 C 16.117188 -56.566406 16.609375 -55.382812 16.609375 -54.03125 C 16.609375 -52.550781 16.113281 -51.265625 15.125 -50.171875 C 14.132812 -49.078125 12.925781 -48.53125 11.5 -48.53125 Z M 2.890625 0 L 2.890625 -2.578125 L 4.75 -2.765625 C 7.269531 -2.953125 8.53125 -4.210938 8.53125 -6.546875 L 8.53125 -30.25 C 8.53125 -33.425781 6.242188 -35.179688 1.671875 -35.515625 L 1.671875 -38.09375 L 15.25 -38.875 L 15.828125 -38.328125 L 15.828125 -7.015625 C 15.828125 -5.535156 16.285156 -4.484375 17.203125 -3.859375 C 18.128906 -3.234375 19.554688 -2.804688 21.484375 -2.578125 L 21.484375 0 Z M 2.890625 0 "/></g></g></g><g fill="#65553e" fill-opacity="1"><g transform="translate(701.306188, 158.32342)"><g><path d="M 21.171875 1.203125 C 16.023438 1.203125 11.664062 -0.691406 8.09375 -4.484375 C 4.519531 -8.273438 2.734375 -13.132812 2.734375 -19.0625 C 2.734375 -25.09375 4.476562 -30.007812 7.96875 -33.8125 C 11.46875 -37.625 16.050781 -39.53125 21.71875 -39.53125 C 27.226562 -39.53125 31.691406 -37.675781 35.109375 -33.96875 C 38.523438 -30.269531 40.234375 -25.5 40.234375 -19.65625 C 40.234375 -13.570312 38.488281 -8.570312 35 -4.65625 C 31.519531 -0.75 26.910156 1.203125 21.171875 1.203125 Z M 21.640625 -36.5625 C 18.128906 -36.5625 15.4375 -35.035156 13.5625 -31.984375 C 11.695312 -28.929688 10.765625 -24.847656 10.765625 -19.734375 C 10.765625 -14.296875 11.703125 -9.9375 13.578125 -6.65625 C 15.460938 -3.382812 18.148438 -1.75 21.640625 -1.75 C 24.960938 -1.75 27.546875 -3.375 29.390625 -6.625 C 31.234375 -9.875 32.15625 -14.191406 32.15625 -19.578125 C 32.15625 -24.828125 31.253906 -28.96875 29.453125 -32 C 27.648438 -35.039062 25.046875 -36.5625 21.640625 -36.5625 Z M 21.640625 -36.5625 "/></g></g></g><g fill="#65553e" fill-opacity="1"><g transform="translate(746.97999, 158.32342)"><g><path d="M 26.4375 0 L 26.4375 -2.578125 L 28.421875 -2.765625 C 31.015625 -2.921875 32.3125 -4.179688 32.3125 -6.546875 L 32.3125 -26.359375 C 32.3125 -28.953125 31.691406 -31.019531 30.453125 -32.5625 C 29.222656 -34.113281 27.632812 -34.890625 25.6875 -34.890625 C 21.25 -34.890625 17.925781 -32.941406 15.71875 -29.046875 L 15.71875 -6.9375 C 15.71875 -4.34375 17.691406 -2.890625 21.640625 -2.578125 L 21.640625 0 L 2.8125 0 L 2.8125 -2.578125 L 4.671875 -2.765625 C 7.191406 -2.953125 8.453125 -4.210938 8.453125 -6.546875 L 8.453125 -30.25 C 8.453125 -33.601562 6.425781 -35.359375 2.375 -35.515625 L 2.375 -38.09375 L 15.171875 -38.875 L 15.71875 -38.328125 L 15.71875 -32.984375 L 15.90625 -32.984375 C 18.738281 -35.890625 21.070312 -37.707031 22.90625 -38.4375 C 24.738281 -39.164062 26.707031 -39.53125 28.8125 -39.53125 C 36.0625 -39.53125 39.6875 -35.296875 39.6875 -26.828125 L 39.6875 -6.859375 C 39.6875 -4.285156 41.546875 -2.859375 45.265625 -2.578125 L 45.265625 0 Z M 26.4375 0 "/></g></g></g></svg>