<svg xmlns="http://www.w3.org/2000/svg" xmlns:xlink="http://www.w3.org/1999/xlink" width="1400" zoomAndPan="magnify" viewBox="0 0 1050 262.499992" height="350" preserveAspectRatio="xMidYMid meet" version="1.0"><defs><g/></defs><path fill="#ffffff" d="M 1 0 L 1049 0 L 1049 262 L 1 262 Z M 1 0 " fill-opacity="1" fill-rule="nonzero"/><path fill="#dcdbda" d="M 1 0 L 1049 0 L 1049 262 L 1 262 Z M 1 0 " fill-opacity="1" fill-rule="nonzero"/><g fill="#65553e" fill-opacity="1"><g transform="translate(91.693851, 153.083402)"><g><path d="M 63.25 -42.046875 C 62.25 -41.960938 61.304688 -41.71875 60.421875 -41.3125 C 59.546875 -40.90625 58.820312 -40.394531 58.25 -39.78125 C 57.675781 -39.164062 57.304688 -38.648438 57.140625 -38.234375 C 56.972656 -37.816406 56.054688 -34.894531 54.390625 -29.46875 L 45.15625 0.5625 L 42.296875 0.5625 L 31.09375 -33.46875 L 19.5 0.5625 L 16.75 0.5625 L 5.765625 -38.109375 C 5.054688 -40.421875 3.09375 -41.734375 -0.125 -42.046875 L -0.125 -44.25 L 17.9375 -44.25 L 17.9375 -42.046875 C 14.101562 -41.796875 12.1875 -41.253906 12.1875 -40.421875 C 12.1875 -39.921875 12.398438 -38.882812 12.828125 -37.3125 C 13.253906 -35.75 15.785156 -26.910156 20.421875 -10.796875 L 31.5 -43.640625 L 34.5625 -43.640625 L 45.65625 -10.109375 C 50.769531 -27.484375 53.328125 -37.210938 53.328125 -39.296875 C 53.328125 -40.773438 51.28125 -41.691406 47.1875 -42.046875 L 47.1875 -44.25 L 63.25 -44.25 Z M 63.25 -42.046875 "/></g></g></g><g fill="#65553e" fill-opacity="1"><g transform="translate(156.148016, 153.083402)"><g><path d="M 29.5625 -7.203125 C 26.695312 -1.835938 22.488281 0.84375 16.9375 0.84375 C 12.320312 0.84375 8.71875 -0.664062 6.125 -3.6875 C 3.539062 -6.71875 2.25 -10.707031 2.25 -15.65625 C 2.25 -20.019531 3.5625 -23.769531 6.1875 -26.90625 C 8.820312 -30.050781 12.1875 -31.625 16.28125 -31.625 C 20.332031 -31.625 23.429688 -30.441406 25.578125 -28.078125 C 27.734375 -25.722656 28.8125 -22.5 28.8125 -18.40625 L 28.8125 -16.34375 L 8.421875 -16.34375 C 8.421875 -11.976562 9.304688 -8.597656 11.078125 -6.203125 C 12.859375 -3.816406 15.40625 -2.625 18.71875 -2.625 C 20.539062 -2.625 22.101562 -3.023438 23.40625 -3.828125 C 24.707031 -4.640625 26.046875 -6.210938 27.421875 -8.546875 Z M 22.671875 -18.96875 C 22.671875 -25.820312 20.519531 -29.25 16.21875 -29.25 C 14.050781 -29.25 12.238281 -28.332031 10.78125 -26.5 C 9.332031 -24.675781 8.546875 -22.164062 8.421875 -18.96875 Z M 22.671875 -18.96875 "/></g></g></g><g fill="#65553e" fill-opacity="1"><g transform="translate(189.10161, 153.083402)"><g><path d="M 1.65625 0 L 1.65625 -2.0625 L 3.21875 -2.21875 C 5.25 -2.34375 6.265625 -3.347656 6.265625 -5.234375 L 6.265625 -40.890625 C 6.265625 -41.867188 5.9375 -42.832031 5.28125 -43.78125 C 4.625 -44.738281 2.882812 -45.320312 0.0625 -45.53125 L 0.0625 -47.59375 L 11.640625 -48.28125 L 12.0625 -47.84375 L 12.0625 -5.609375 C 12.0625 -3.492188 13.601562 -2.3125 16.6875 -2.0625 L 16.6875 0 Z M 1.65625 0 "/></g></g></g><g fill="#65553e" fill-opacity="1"><g transform="translate(209.486159, 153.083402)"><g><path d="M 28.875 -7.140625 C 27.570312 -4.773438 25.789062 -2.851562 23.53125 -1.375 C 21.269531 0.101562 18.914062 0.84375 16.46875 0.84375 C 12.019531 0.84375 8.535156 -0.632812 6.015625 -3.59375 C 3.503906 -6.5625 2.25 -10.539062 2.25 -15.53125 C 2.25 -19.9375 3.625 -23.71875 6.375 -26.875 C 9.132812 -30.039062 12.632812 -31.625 16.875 -31.625 C 20.007812 -31.625 22.492188 -30.878906 24.328125 -29.390625 C 26.160156 -27.910156 27.078125 -25.972656 27.078125 -23.578125 C 27.078125 -20.941406 26.015625 -19.625 23.890625 -19.625 C 22.679688 -19.625 21.726562 -19.921875 21.03125 -20.515625 C 20.332031 -21.117188 19.984375 -21.816406 19.984375 -22.609375 C 19.984375 -23.441406 20.109375 -24.378906 20.359375 -25.421875 C 20.609375 -26.484375 20.765625 -27.234375 20.828125 -27.671875 C 20.234375 -28.722656 18.875 -29.25 16.75 -29.25 C 14.394531 -29.25 12.460938 -28.085938 10.953125 -25.765625 C 9.453125 -23.453125 8.703125 -20.125 8.703125 -15.78125 C 8.703125 -11.851562 9.566406 -8.675781 11.296875 -6.25 C 13.035156 -3.832031 15.28125 -2.625 18.03125 -2.625 C 21.582031 -2.625 24.515625 -4.578125 26.828125 -8.484375 Z M 28.875 -7.140625 "/></g></g></g><g fill="#65553e" fill-opacity="1"><g transform="translate(240.599615, 153.083402)"><g><path d="M 16.9375 0.96875 C 12.820312 0.96875 9.332031 -0.546875 6.46875 -3.578125 C 3.613281 -6.617188 2.1875 -10.507812 2.1875 -15.25 C 2.1875 -20.070312 3.582031 -24.003906 6.375 -27.046875 C 9.175781 -30.097656 12.84375 -31.625 17.375 -31.625 C 21.78125 -31.625 25.347656 -30.140625 28.078125 -27.171875 C 30.816406 -24.210938 32.1875 -20.394531 32.1875 -15.71875 C 32.1875 -10.851562 30.789062 -6.851562 28 -3.71875 C 25.21875 -0.59375 21.53125 0.96875 16.9375 0.96875 Z M 17.3125 -29.25 C 14.5 -29.25 12.34375 -28.023438 10.84375 -25.578125 C 9.351562 -23.140625 8.609375 -19.875 8.609375 -15.78125 C 8.609375 -11.4375 9.359375 -7.953125 10.859375 -5.328125 C 12.367188 -2.710938 14.519531 -1.40625 17.3125 -1.40625 C 19.96875 -1.40625 22.035156 -2.703125 23.515625 -5.296875 C 24.992188 -7.898438 25.734375 -11.351562 25.734375 -15.65625 C 25.734375 -19.851562 25.007812 -23.164062 23.5625 -25.59375 C 22.113281 -28.03125 20.03125 -29.25 17.3125 -29.25 Z M 17.3125 -29.25 "/></g></g></g><g fill="#65553e" fill-opacity="1"><g transform="translate(277.139902, 153.083402)"><g><path d="M 39.921875 0 L 39.921875 -2.0625 L 41.390625 -2.21875 C 43.378906 -2.363281 44.375 -3.367188 44.375 -5.234375 L 44.375 -21.140625 C 44.375 -23.242188 43.890625 -24.898438 42.921875 -26.109375 C 41.960938 -27.316406 40.722656 -27.921875 39.203125 -27.921875 C 35.835938 -27.921875 33.25 -26.390625 31.4375 -23.328125 L 31.4375 -5.546875 C 31.4375 -3.453125 32.925781 -2.289062 35.90625 -2.0625 L 35.90625 0 L 21.203125 0 L 21.203125 -2.0625 L 22.609375 -2.21875 C 24.566406 -2.382812 25.546875 -3.390625 25.546875 -5.234375 L 25.546875 -21.140625 C 25.546875 -23.242188 25.0625 -24.898438 24.09375 -26.109375 C 23.125 -27.316406 21.878906 -27.921875 20.359375 -27.921875 C 17.035156 -27.921875 14.4375 -26.359375 12.5625 -23.234375 L 12.5625 -5.609375 C 12.5625 -3.492188 14.101562 -2.3125 17.1875 -2.0625 L 17.1875 0 L 2.25 0 L 2.25 -2.0625 L 3.75 -2.21875 C 5.757812 -2.363281 6.765625 -3.367188 6.765625 -5.234375 L 6.765625 -24.328125 C 6.765625 -26.796875 5.101562 -28.15625 1.78125 -28.40625 L 1.78125 -30.46875 L 12.0625 -31.09375 L 12.5 -30.65625 L 12.5 -26.328125 L 12.71875 -26.328125 C 13.34375 -26.929688 13.96875 -27.550781 14.59375 -28.1875 C 16.863281 -30.476562 19.660156 -31.625 22.984375 -31.625 C 26.867188 -31.625 29.613281 -29.796875 31.21875 -26.140625 C 33.550781 -28.484375 35.46875 -29.984375 36.96875 -30.640625 C 38.476562 -31.296875 40.097656 -31.625 41.828125 -31.625 C 44.546875 -31.625 46.632812 -30.71875 48.09375 -28.90625 C 49.550781 -27.101562 50.28125 -24.535156 50.28125 -21.203125 L 50.28125 -5.546875 C 50.28125 -4.546875 50.554688 -3.757812 51.109375 -3.1875 C 51.671875 -2.625 52.941406 -2.25 54.921875 -2.0625 L 54.921875 0 Z M 39.921875 0 "/></g></g></g><g fill="#65553e" fill-opacity="1"><g transform="translate(335.512256, 153.083402)"><g><path d="M 29.5625 -7.203125 C 26.695312 -1.835938 22.488281 0.84375 16.9375 0.84375 C 12.320312 0.84375 8.71875 -0.664062 6.125 -3.6875 C 3.539062 -6.71875 2.25 -10.707031 2.25 -15.65625 C 2.25 -20.019531 3.5625 -23.769531 6.1875 -26.90625 C 8.820312 -30.050781 12.1875 -31.625 16.28125 -31.625 C 20.332031 -31.625 23.429688 -30.441406 25.578125 -28.078125 C 27.734375 -25.722656 28.8125 -22.5 28.8125 -18.40625 L 28.8125 -16.34375 L 8.421875 -16.34375 C 8.421875 -11.976562 9.304688 -8.597656 11.078125 -6.203125 C 12.859375 -3.816406 15.40625 -2.625 18.71875 -2.625 C 20.539062 -2.625 22.101562 -3.023438 23.40625 -3.828125 C 24.707031 -4.640625 26.046875 -6.210938 27.421875 -8.546875 Z M 22.671875 -18.96875 C 22.671875 -25.820312 20.519531 -29.25 16.21875 -29.25 C 14.050781 -29.25 12.238281 -28.332031 10.78125 -26.5 C 9.332031 -24.675781 8.546875 -22.164062 8.421875 -18.96875 Z M 22.671875 -18.96875 "/></g></g></g><g fill="#65553e" fill-opacity="1"><g transform="translate(368.465873, 153.083402)"><g/></g></g><g fill="#65553e" fill-opacity="1"><g transform="translate(385.981063, 153.083402)"><g><path d="M 21.265625 -1.34375 C 18.273438 -0.03125 15.507812 0.625 12.96875 0.625 C 8.269531 0.625 5.921875 -1.835938 5.921875 -6.765625 L 5.921875 -27.671875 L 0.375 -27.671875 L 0.375 -30.59375 L 6.078125 -30.59375 L 6.078125 -40.171875 L 11.765625 -40.171875 L 11.765625 -30.59375 L 20.546875 -30.59375 L 20.546875 -27.671875 L 11.828125 -27.671875 L 11.828125 -10.484375 C 11.828125 -7.628906 12.144531 -5.6875 12.78125 -4.65625 C 13.425781 -3.632812 14.769531 -3.125 16.8125 -3.125 C 18.582031 -3.125 20.066406 -3.300781 21.265625 -3.65625 Z M 21.265625 -1.34375 "/></g></g></g><g fill="#65553e" fill-opacity="1"><g transform="translate(410.139436, 153.083402)"><g><path d="M 16.9375 0.96875 C 12.820312 0.96875 9.332031 -0.546875 6.46875 -3.578125 C 3.613281 -6.617188 2.1875 -10.507812 2.1875 -15.25 C 2.1875 -20.070312 3.582031 -24.003906 6.375 -27.046875 C 9.175781 -30.097656 12.84375 -31.625 17.375 -31.625 C 21.78125 -31.625 25.347656 -30.140625 28.078125 -27.171875 C 30.816406 -24.210938 32.1875 -20.394531 32.1875 -15.71875 C 32.1875 -10.851562 30.789062 -6.851562 28 -3.71875 C 25.21875 -0.59375 21.53125 0.96875 16.9375 0.96875 Z M 17.3125 -29.25 C 14.5 -29.25 12.34375 -28.023438 10.84375 -25.578125 C 9.351562 -23.140625 8.609375 -19.875 8.609375 -15.78125 C 8.609375 -11.4375 9.359375 -7.953125 10.859375 -5.328125 C 12.367188 -2.710938 14.519531 -1.40625 17.3125 -1.40625 C 19.96875 -1.40625 22.035156 -2.703125 23.515625 -5.296875 C 24.992188 -7.898438 25.734375 -11.351562 25.734375 -15.65625 C 25.734375 -19.851562 25.007812 -23.164062 23.5625 -25.59375 C 22.113281 -28.03125 20.03125 -29.25 17.3125 -29.25 Z M 17.3125 -29.25 "/></g></g></g><g fill="#65553e" fill-opacity="1"><g transform="translate(446.679712, 153.083402)"><g/></g></g><g fill="#65553e" fill-opacity="1"><g transform="translate(464.194901, 153.083402)"><g><path d="M 23.234375 -45.71875 C 19.203125 -43.582031 17.125 -41.035156 17 -38.078125 L 18.53125 -38.078125 C 21.289062 -38.078125 22.671875 -36.820312 22.671875 -34.3125 C 22.671875 -33.351562 22.320312 -32.515625 21.625 -31.796875 C 20.925781 -31.078125 20.039062 -30.71875 18.96875 -30.71875 C 15.65625 -30.71875 14 -32.847656 14 -37.109375 C 14 -41.066406 16.722656 -44.5625 22.171875 -47.59375 Z M 11.703125 -45.71875 C 7.679688 -43.582031 5.609375 -41.035156 5.484375 -38.078125 L 6.953125 -38.078125 C 9.722656 -38.078125 11.109375 -36.820312 11.109375 -34.3125 C 11.109375 -33.351562 10.757812 -32.515625 10.0625 -31.796875 C 9.363281 -31.078125 8.484375 -30.71875 7.421875 -30.71875 C 4.097656 -30.71875 2.4375 -32.847656 2.4375 -37.109375 C 2.4375 -41.066406 5.160156 -44.5625 10.609375 -47.59375 Z M 11.703125 -45.71875 "/></g></g></g><g fill="#65553e" fill-opacity="1"><g transform="translate(492.508492, 153.083402)"><g><path d="M 23.453125 -27.671875 L 14.75 -27.671875 L 10.796875 -10.484375 C 10.378906 -8.671875 10.171875 -7.265625 10.171875 -6.265625 C 10.171875 -5.097656 10.453125 -4.25 11.015625 -3.71875 C 11.578125 -3.195312 12.613281 -2.9375 14.125 -2.9375 C 15.644531 -2.9375 17.15625 -3.195312 18.65625 -3.71875 L 18.15625 -1.40625 C 14.800781 -0.0507812 11.898438 0.625 9.453125 0.625 C 5.671875 0.625 3.78125 -0.921875 3.78125 -4.015625 C 3.78125 -4.890625 3.878906 -5.804688 4.078125 -6.765625 L 8.953125 -27.671875 L 3.40625 -27.671875 L 4.015625 -30.46875 L 9.703125 -30.46875 L 11.890625 -39.609375 L 17.5 -39.609375 L 15.40625 -30.46875 L 24.078125 -30.46875 Z M 23.453125 -27.671875 "/></g></g></g><g fill="#65553e" fill-opacity="1"><g transform="translate(516.791632, 153.083402)"><g><path d="M 33.65625 -1.59375 C 30.195312 -0.195312 27.691406 0.5 26.140625 0.5 C 22.804688 0.5 21.140625 -0.988281 21.140625 -3.96875 C 21.140625 -5.019531 21.304688 -6.171875 21.640625 -7.421875 L 24.734375 -19.03125 C 25.234375 -20.894531 25.484375 -22.296875 25.484375 -23.234375 C 25.484375 -26.273438 24.160156 -27.796875 21.515625 -27.796875 C 18.710938 -27.796875 15.800781 -26.148438 12.78125 -22.859375 L 7.546875 0 L 1.71875 0 L 10.984375 -40.109375 C 11.253906 -41.273438 11.390625 -42.046875 11.390625 -42.421875 C 11.390625 -43.398438 11.144531 -44.132812 10.65625 -44.625 C 10.164062 -45.125 8.703125 -45.46875 6.265625 -45.65625 L 6.640625 -47.59375 L 18.28125 -48.28125 L 18.59375 -47.84375 L 13.53125 -26.265625 L 13.65625 -26.265625 C 16.425781 -28.421875 18.597656 -29.832031 20.171875 -30.5 C 21.753906 -31.164062 23.421875 -31.5 25.171875 -31.5 C 27.160156 -31.5 28.722656 -30.925781 29.859375 -29.78125 C 30.992188 -28.632812 31.5625 -27.117188 31.5625 -25.234375 C 31.5625 -23.734375 31.300781 -22.109375 30.78125 -20.359375 L 28.15625 -10.359375 C 27.664062 -8.441406 27.421875 -7.015625 27.421875 -6.078125 C 27.421875 -4.890625 27.671875 -4.078125 28.171875 -3.640625 C 28.679688 -3.210938 29.53125 -3 30.71875 -3 C 31.71875 -3 32.851562 -3.21875 34.125 -3.65625 Z M 33.65625 -1.59375 "/></g></g></g><g fill="#65553e" fill-opacity="1"><g transform="translate(554.86017, 153.083402)"><g><path d="M 8.359375 -12.71875 C 8.359375 -5.988281 10.75 -2.625 15.53125 -2.625 C 19.226562 -2.625 22.628906 -4.691406 25.734375 -8.828125 L 27.546875 -7.484375 C 25.835938 -4.890625 23.71875 -2.84375 21.1875 -1.34375 C 18.664062 0.15625 16.09375 0.90625 13.46875 0.90625 C 9.832031 0.90625 7.039062 -0.117188 5.09375 -2.171875 C 3.15625 -4.234375 2.1875 -7.171875 2.1875 -10.984375 C 2.1875 -16.472656 3.890625 -21.265625 7.296875 -25.359375 C 10.703125 -29.453125 14.953125 -31.5 20.046875 -31.5 C 22.859375 -31.5 25.03125 -30.925781 26.5625 -29.78125 C 28.101562 -28.632812 28.875 -27.035156 28.875 -24.984375 C 28.875 -21.410156 27.109375 -18.675781 23.578125 -16.78125 C 20.046875 -14.882812 14.972656 -13.53125 8.359375 -12.71875 Z M 8.546875 -14.875 C 14.285156 -15.582031 18.144531 -16.847656 20.125 -18.671875 C 22.113281 -20.503906 23.109375 -22.859375 23.109375 -25.734375 C 23.109375 -28.078125 21.90625 -29.25 19.5 -29.25 C 17.019531 -29.25 14.71875 -27.90625 12.59375 -25.21875 C 10.476562 -22.539062 9.128906 -19.09375 8.546875 -14.875 Z M 8.546875 -14.875 "/></g></g></g><g fill="#65553e" fill-opacity="1"><g transform="translate(587.127612, 153.083402)"><g><path d="M 21.078125 -14.625 L 2.5 -14.625 L 3.59375 -19.375 L 22.171875 -19.375 Z M 21.078125 -14.625 "/></g></g></g><g fill="#65553e" fill-opacity="1"><g transform="translate(613.126124, 153.083402)"><g><path d="M 29 -10.421875 C 28.476562 -8.148438 28.21875 -6.703125 28.21875 -6.078125 C 28.21875 -4.890625 28.472656 -4.078125 28.984375 -3.640625 C 29.492188 -3.210938 30.332031 -3 31.5 -3 C 32.625 -3 33.75 -3.195312 34.875 -3.59375 L 34.4375 -1.59375 C 31.5 -0.195312 28.984375 0.5 26.890625 0.5 C 23.617188 0.5 21.984375 -1.085938 21.984375 -4.265625 L 21.765625 -4.265625 C 18.109375 -0.816406 14.816406 0.90625 11.890625 0.90625 C 8.867188 0.90625 6.492188 -0.164062 4.765625 -2.3125 C 3.046875 -4.46875 2.1875 -7.441406 2.1875 -11.234375 C 2.1875 -16.578125 3.9375 -21.289062 7.4375 -25.375 C 10.9375 -29.457031 15.082031 -31.5 19.875 -31.5 C 22.78125 -31.5 25.378906 -30.832031 27.671875 -29.5 L 30.09375 -40.109375 C 30.300781 -41.023438 30.40625 -41.816406 30.40625 -42.484375 C 30.40625 -44.222656 29.191406 -45.195312 26.765625 -45.40625 C 26.015625 -45.46875 25.179688 -45.550781 24.265625 -45.65625 L 24.734375 -47.59375 L 37.296875 -48.28125 L 37.609375 -47.84375 Z M 26.390625 -24.140625 C 26.535156 -24.785156 26.101562 -25.796875 25.09375 -27.171875 C 24.082031 -28.554688 22.484375 -29.25 20.296875 -29.25 C 17.179688 -29.25 14.453125 -27.445312 12.109375 -23.84375 C 9.773438 -20.238281 8.609375 -16.015625 8.609375 -11.171875 C 8.609375 -8.085938 9.066406 -5.890625 9.984375 -4.578125 C 10.898438 -3.273438 12.320312 -2.625 14.25 -2.625 C 16.6875 -2.625 19.429688 -4.148438 22.484375 -7.203125 Z M 26.390625 -24.140625 "/></g></g></g><g fill="#65553e" fill-opacity="1"><g transform="translate(651.974374, 153.083402)"><g><path d="M 8.359375 -12.71875 C 8.359375 -5.988281 10.75 -2.625 15.53125 -2.625 C 19.226562 -2.625 22.628906 -4.691406 25.734375 -8.828125 L 27.546875 -7.484375 C 25.835938 -4.890625 23.71875 -2.84375 21.1875 -1.34375 C 18.664062 0.15625 16.09375 0.90625 13.46875 0.90625 C 9.832031 0.90625 7.039062 -0.117188 5.09375 -2.171875 C 3.15625 -4.234375 2.1875 -7.171875 2.1875 -10.984375 C 2.1875 -16.472656 3.890625 -21.265625 7.296875 -25.359375 C 10.703125 -29.453125 14.953125 -31.5 20.046875 -31.5 C 22.859375 -31.5 25.03125 -30.925781 26.5625 -29.78125 C 28.101562 -28.632812 28.875 -27.035156 28.875 -24.984375 C 28.875 -21.410156 27.109375 -18.675781 23.578125 -16.78125 C 20.046875 -14.882812 14.972656 -13.53125 8.359375 -12.71875 Z M 8.546875 -14.875 C 14.285156 -15.582031 18.144531 -16.847656 20.125 -18.671875 C 22.113281 -20.503906 23.109375 -22.859375 23.109375 -25.734375 C 23.109375 -28.078125 21.90625 -29.25 19.5 -29.25 C 17.019531 -29.25 14.71875 -27.90625 12.59375 -25.21875 C 10.476562 -22.539062 9.128906 -19.09375 8.546875 -14.875 Z M 8.546875 -14.875 "/></g></g></g><g fill="#65553e" fill-opacity="1"><g transform="translate(684.241828, 153.083402)"><g><path d="M 23.703125 -28.21875 C 20.921875 -28.21875 17.8125 -26.265625 14.375 -22.359375 L 9.328125 0 L 3.53125 0 L 8.046875 -20.171875 C 8.566406 -22.503906 8.828125 -24.003906 8.828125 -24.671875 C 8.828125 -25.835938 8.617188 -26.617188 8.203125 -27.015625 C 7.785156 -27.410156 7.003906 -27.609375 5.859375 -27.609375 C 4.984375 -27.609375 3.863281 -27.390625 2.5 -26.953125 L 2.9375 -29 C 6.050781 -30.394531 8.566406 -31.09375 10.484375 -31.09375 C 13.535156 -31.09375 15.0625 -29.285156 15.0625 -25.671875 L 15.25 -25.671875 L 18.21875 -28.15625 C 20.769531 -30.382812 23.003906 -31.5 24.921875 -31.5 C 28.140625 -31.5 29.75 -29.796875 29.75 -26.390625 C 29.75 -24.890625 29.378906 -23.617188 28.640625 -22.578125 C 27.910156 -21.535156 26.898438 -21.015625 25.609375 -21.015625 C 23.398438 -21.015625 22.296875 -21.910156 22.296875 -23.703125 C 22.296875 -24.722656 22.765625 -26.226562 23.703125 -28.21875 Z M 23.703125 -28.21875 "/></g></g></g><g fill="#65553e" fill-opacity="1"><g transform="translate(715.791915, 153.083402)"><g><path d="M 15.40625 -38.828125 C 14.363281 -38.828125 13.453125 -39.238281 12.671875 -40.0625 C 11.898438 -40.882812 11.515625 -41.859375 11.515625 -42.984375 C 11.515625 -44.117188 11.894531 -45.117188 12.65625 -45.984375 C 13.425781 -46.847656 14.34375 -47.28125 15.40625 -47.28125 C 16.53125 -47.28125 17.484375 -46.882812 18.265625 -46.09375 C 19.046875 -45.300781 19.4375 -44.347656 19.4375 -43.234375 C 19.4375 -42.066406 19.046875 -41.039062 18.265625 -40.15625 C 17.484375 -39.269531 16.53125 -38.828125 15.40625 -38.828125 Z M 16.75 -1.40625 C 13.425781 -0.0507812 10.910156 0.625 9.203125 0.625 C 7.617188 0.625 6.390625 0.222656 5.515625 -0.578125 C 4.640625 -1.378906 4.203125 -2.46875 4.203125 -3.84375 C 4.203125 -4.707031 4.378906 -5.847656 4.734375 -7.265625 L 8.046875 -20.546875 C 8.523438 -22.460938 8.765625 -23.960938 8.765625 -25.046875 C 8.765625 -26.273438 8.550781 -27.0625 8.125 -27.40625 C 7.695312 -27.75 6.921875 -27.921875 5.796875 -27.921875 C 5.128906 -27.921875 3.96875 -27.734375 2.3125 -27.359375 L 2.75 -29.3125 C 5.96875 -30.769531 8.441406 -31.5 10.171875 -31.5 C 13.390625 -31.5 15 -29.984375 15 -26.953125 C 15 -25.910156 14.851562 -24.765625 14.5625 -23.515625 L 11.171875 -10.296875 C 10.671875 -8.359375 10.421875 -6.898438 10.421875 -5.921875 C 10.421875 -3.890625 11.539062 -2.875 13.78125 -2.875 C 14.96875 -2.875 16.101562 -3.050781 17.1875 -3.40625 Z M 16.75 -1.40625 "/></g></g></g><g fill="#65553e" fill-opacity="1"><g transform="translate(736.862603, 153.083402)"><g><path d="M 1.84375 -26.828125 L 2.3125 -28.875 C 5.570312 -30.351562 8.015625 -31.09375 9.640625 -31.09375 C 12.921875 -31.09375 14.5625 -29.609375 14.5625 -26.640625 C 14.5625 -25.578125 14.394531 -24.421875 14.0625 -23.171875 L 11.046875 -11.578125 C 10.628906 -9.972656 10.421875 -8.734375 10.421875 -7.859375 C 10.421875 -4.410156 12.1875 -2.6875 15.71875 -2.6875 C 18.644531 -2.6875 21.4375 -4.359375 24.09375 -7.703125 C 26.757812 -11.046875 28.09375 -14.84375 28.09375 -19.09375 C 28.09375 -20.957031 27.546875 -22.523438 26.453125 -23.796875 C 25.347656 -25.066406 24.796875 -26.421875 24.796875 -27.859375 C 24.796875 -28.910156 25.15625 -29.78125 25.875 -30.46875 C 26.59375 -31.15625 27.457031 -31.5 28.46875 -31.5 C 31.070312 -31.5 32.375 -29.554688 32.375 -25.671875 C 32.375 -18.804688 30.503906 -12.648438 26.765625 -7.203125 C 23.035156 -1.753906 18.5625 0.96875 13.34375 0.96875 C 10.664062 0.96875 8.503906 0.21875 6.859375 -1.28125 C 5.210938 -2.78125 4.390625 -4.828125 4.390625 -7.421875 C 4.390625 -8.359375 4.523438 -9.296875 4.796875 -10.234375 L 7.546875 -20.171875 C 8.046875 -21.984375 8.296875 -23.484375 8.296875 -24.671875 C 8.296875 -25.816406 8.09375 -26.59375 7.6875 -27 C 7.28125 -27.40625 6.484375 -27.609375 5.296875 -27.609375 C 4.546875 -27.609375 3.394531 -27.347656 1.84375 -26.828125 Z M 1.84375 -26.828125 "/></g></g></g><g fill="#65553e" fill-opacity="1"><g transform="translate(773.340512, 153.083402)"><g><path d="M 34.25 -1.59375 C 30.9375 -0.195312 28.421875 0.5 26.703125 0.5 C 25.222656 0.5 24.03125 0.0625 23.125 -0.8125 C 22.21875 -1.6875 21.742188 -2.773438 21.703125 -4.078125 L 21.453125 -4.078125 C 17.773438 -0.753906 14.585938 0.90625 11.890625 0.90625 C 8.867188 0.90625 6.492188 -0.164062 4.765625 -2.3125 C 3.046875 -4.46875 2.1875 -7.441406 2.1875 -11.234375 C 2.1875 -16.472656 3.988281 -21.160156 7.59375 -25.296875 C 11.195312 -29.429688 15.347656 -31.5 20.046875 -31.5 C 22.898438 -31.5 25.378906 -30.832031 27.484375 -29.5 L 33.21875 -30.96875 L 33.53125 -30.53125 L 28.8125 -10.421875 C 28.289062 -8.191406 28.03125 -6.722656 28.03125 -6.015625 C 28.03125 -4.828125 28.285156 -4.023438 28.796875 -3.609375 C 29.304688 -3.203125 30.144531 -3 31.3125 -3 C 32.4375 -3 33.5625 -3.195312 34.6875 -3.59375 Z M 26.203125 -23.828125 C 26.390625 -24.660156 26.097656 -25.769531 25.328125 -27.15625 C 24.554688 -28.550781 22.960938 -29.25 20.546875 -29.25 C 17.515625 -29.25 14.765625 -27.40625 12.296875 -23.71875 C 9.835938 -20.03125 8.609375 -15.847656 8.609375 -11.171875 C 8.609375 -8.085938 9.066406 -5.890625 9.984375 -4.578125 C 10.898438 -3.273438 12.320312 -2.625 14.25 -2.625 C 16.601562 -2.625 19.265625 -4.085938 22.234375 -7.015625 Z M 26.203125 -23.828125 "/></g></g></g><g fill="#65553e" fill-opacity="1"><g transform="translate(812.064007, 153.083402)"><g><path d="M 23.453125 -27.671875 L 14.75 -27.671875 L 10.796875 -10.484375 C 10.378906 -8.671875 10.171875 -7.265625 10.171875 -6.265625 C 10.171875 -5.097656 10.453125 -4.25 11.015625 -3.71875 C 11.578125 -3.195312 12.613281 -2.9375 14.125 -2.9375 C 15.644531 -2.9375 17.15625 -3.195312 18.65625 -3.71875 L 18.15625 -1.40625 C 14.800781 -0.0507812 11.898438 0.625 9.453125 0.625 C 5.671875 0.625 3.78125 -0.921875 3.78125 -4.015625 C 3.78125 -4.890625 3.878906 -5.804688 4.078125 -6.765625 L 8.953125 -27.671875 L 3.40625 -27.671875 L 4.015625 -30.46875 L 9.703125 -30.46875 L 11.890625 -39.609375 L 17.5 -39.609375 L 15.40625 -30.46875 L 24.078125 -30.46875 Z M 23.453125 -27.671875 "/></g></g></g><g fill="#65553e" fill-opacity="1"><g transform="translate(836.347158, 153.083402)"><g><path d="M 15.40625 -38.828125 C 14.363281 -38.828125 13.453125 -39.238281 12.671875 -40.0625 C 11.898438 -40.882812 11.515625 -41.859375 11.515625 -42.984375 C 11.515625 -44.117188 11.894531 -45.117188 12.65625 -45.984375 C 13.425781 -46.847656 14.34375 -47.28125 15.40625 -47.28125 C 16.53125 -47.28125 17.484375 -46.882812 18.265625 -46.09375 C 19.046875 -45.300781 19.4375 -44.347656 19.4375 -43.234375 C 19.4375 -42.066406 19.046875 -41.039062 18.265625 -40.15625 C 17.484375 -39.269531 16.53125 -38.828125 15.40625 -38.828125 Z M 16.75 -1.40625 C 13.425781 -0.0507812 10.910156 0.625 9.203125 0.625 C 7.617188 0.625 6.390625 0.222656 5.515625 -0.578125 C 4.640625 -1.378906 4.203125 -2.46875 4.203125 -3.84375 C 4.203125 -4.707031 4.378906 -5.847656 4.734375 -7.265625 L 8.046875 -20.546875 C 8.523438 -22.460938 8.765625 -23.960938 8.765625 -25.046875 C 8.765625 -26.273438 8.550781 -27.0625 8.125 -27.40625 C 7.695312 -27.75 6.921875 -27.921875 5.796875 -27.921875 C 5.128906 -27.921875 3.96875 -27.734375 2.3125 -27.359375 L 2.75 -29.3125 C 5.96875 -30.769531 8.441406 -31.5 10.171875 -31.5 C 13.390625 -31.5 15 -29.984375 15 -26.953125 C 15 -25.910156 14.851562 -24.765625 14.5625 -23.515625 L 11.171875 -10.296875 C 10.671875 -8.359375 10.421875 -6.898438 10.421875 -5.921875 C 10.421875 -3.890625 11.539062 -2.875 13.78125 -2.875 C 14.96875 -2.875 16.101562 -3.050781 17.1875 -3.40625 Z M 16.75 -1.40625 "/></g></g></g><g fill="#65553e" fill-opacity="1"><g transform="translate(857.417847, 153.083402)"><g><path d="M 13.71875 0.96875 C 10.289062 0.96875 7.5 -0.144531 5.34375 -2.375 C 3.195312 -4.613281 2.125 -7.617188 2.125 -11.390625 C 2.125 -16.960938 3.859375 -21.707031 7.328125 -25.625 C 10.796875 -29.539062 15.140625 -31.5 20.359375 -31.5 C 24.023438 -31.5 26.910156 -30.378906 29.015625 -28.140625 C 31.128906 -25.910156 32.1875 -22.9375 32.1875 -19.21875 C 32.1875 -13.769531 30.457031 -9.039062 27 -5.03125 C 23.550781 -1.03125 19.125 0.96875 13.71875 0.96875 Z M 19.75 -29.25 C 16.226562 -29.25 13.457031 -27.351562 11.4375 -23.5625 C 9.425781 -19.769531 8.421875 -15.367188 8.421875 -10.359375 C 8.421875 -4.304688 10.488281 -1.28125 14.625 -1.28125 C 17.976562 -1.28125 20.6875 -3.144531 22.75 -6.875 C 24.820312 -10.601562 25.859375 -15.097656 25.859375 -20.359375 C 25.859375 -26.285156 23.820312 -29.25 19.75 -29.25 Z M 19.75 -29.25 "/></g></g></g><g fill="#65553e" fill-opacity="1"><g transform="translate(893.83339, 153.083402)"><g><path d="M 35.40625 -1.59375 C 31.84375 -0.195312 29.328125 0.5 27.859375 0.5 C 24.523438 0.5 22.859375 -0.988281 22.859375 -3.96875 C 22.859375 -5.0625 23.035156 -6.210938 23.390625 -7.421875 L 26.453125 -19.03125 C 26.953125 -20.914062 27.203125 -22.316406 27.203125 -23.234375 C 27.203125 -26.273438 25.878906 -27.796875 23.234375 -27.796875 C 20.347656 -27.796875 17.4375 -26.148438 14.5 -22.859375 L 9.265625 0 L 3.46875 0 L 8.046875 -20.171875 C 8.566406 -22.460938 8.828125 -23.960938 8.828125 -24.671875 C 8.828125 -25.835938 8.617188 -26.617188 8.203125 -27.015625 C 7.785156 -27.410156 7.003906 -27.609375 5.859375 -27.609375 C 4.984375 -27.609375 3.863281 -27.390625 2.5 -26.953125 L 2.9375 -29 C 6.050781 -30.394531 8.566406 -31.09375 10.484375 -31.09375 C 13.429688 -31.09375 14.957031 -29.421875 15.0625 -26.078125 L 15.25 -26.078125 C 18.269531 -28.441406 20.523438 -29.9375 22.015625 -30.5625 C 23.515625 -31.1875 25.140625 -31.5 26.890625 -31.5 C 28.878906 -31.5 30.441406 -30.925781 31.578125 -29.78125 C 32.710938 -28.632812 33.28125 -27.117188 33.28125 -25.234375 C 33.28125 -23.734375 33.019531 -22.109375 32.5 -20.359375 L 29.875 -10.359375 C 29.375 -8.441406 29.125 -7.015625 29.125 -6.078125 C 29.125 -4.890625 29.378906 -4.078125 29.890625 -3.640625 C 30.398438 -3.210938 31.25 -3 32.4375 -3 C 33.457031 -3 34.59375 -3.21875 35.84375 -3.65625 Z M 35.40625 -1.59375 "/></g></g></g><g fill="#65553e" fill-opacity="1"><g transform="translate(933.617288, 153.083402)"><g><path d="M 17.8125 -30.78125 L 16.9375 -32.78125 C 21.488281 -35.019531 24.085938 -37.546875 24.734375 -40.359375 L 23.390625 -40.359375 C 20.960938 -40.359375 19.75 -41.410156 19.75 -43.515625 C 19.75 -44.585938 20.144531 -45.554688 20.9375 -46.421875 C 21.738281 -47.285156 22.765625 -47.71875 24.015625 -47.71875 C 26.773438 -47.71875 28.15625 -46.273438 28.15625 -43.390625 C 28.15625 -38.359375 24.707031 -34.15625 17.8125 -30.78125 Z M 6.328125 -30.78125 L 5.359375 -32.78125 C 9.890625 -35 12.507812 -37.523438 13.21875 -40.359375 L 11.890625 -40.359375 C 9.410156 -40.359375 8.171875 -41.410156 8.171875 -43.515625 C 8.171875 -44.585938 8.570312 -45.554688 9.375 -46.421875 C 10.175781 -47.285156 11.195312 -47.71875 12.4375 -47.71875 C 15.207031 -47.71875 16.59375 -46.273438 16.59375 -43.390625 C 16.59375 -38.378906 13.171875 -34.175781 6.328125 -30.78125 Z M 6.328125 -30.78125 "/></g></g></g></svg>